<?xml version="1.0" encoding="iso-8859-1"?>
<!-- Generator: Adobe Illustrator 19.0.0, SVG Export Plug-In . SVG Version: 6.00 Build 0)  -->
<svg version="1.1" id="Capa_1" xmlns="http://www.w3.org/2000/svg" xmlns:xlink="http://www.w3.org/1999/xlink" x="0px" y="0px"
	 viewBox="0 0 496 496" style="enable-background:new 0 0 496 496;" xml:space="preserve">
<g>
	<g>
		<path d="M476,208h-0.688l-11.4-11.4C462.088,87.888,373.144,0,264,0h-32C122.856,0,33.912,87.888,32.088,196.6l-11.672,11.664
			C8.88,210,0,219.984,0,232c0,13.232,10.768,24,24,24h8.632c1.048,7.272,3.48,14.248,7.216,20.544C29.76,285.84,24,297.104,24,308
			c0,13.064,5.752,24.776,14.824,32.848L37.352,340C33.848,346.048,32,352.968,32,360c0,10.776,4.328,20.528,11.28,27.728
			C36.528,391.976,32,399.448,32,408v32c0,30.88,25.12,56,56,56h320c30.88,0,56-25.12,56-56v-32c0-8.552-4.528-16.024-11.28-20.272
			c6.952-7.2,11.28-16.952,11.28-27.728c0-7.032-1.848-13.952-5.352-20l-1.464,0.848C466.248,332.776,472,321.064,472,308
			c0-12.592-5.424-23.472-15.68-31.76c4.976-8.512,7.68-18.224,7.68-28.24h12c11.024,0,20-8.976,20-20S487.024,208,476,208z M40,308
			c0-6.416,4.048-13.752,10.952-20H120v16h16v-16h184v100c0,6.616-5.384,12-12,12c-6.616,0-12-5.384-12-12v-56
			c0-15.44-12.56-28-28-28s-28,12.56-28,28v104c0,6.616-5.384,12-12,12c-6.616,0-12-5.384-12-12v-80c0-15.44-12.56-28-28-28
			s-28,12.56-28,28v40c0,6.616-5.384,12-12,12c-6.616,0-12-5.384-12-12v-76h-16v14.704c-6.176-1.856-11.648-5.72-15.336-11.272
			L98,313.376l-6.664,10.056C86.112,331.304,77.392,336,68,336C52.56,336,40,323.44,40,308z M97.888,264l16-8h27.056l8-16h14.112
			l8,16h34.712l8-24h21.288l8,16H264v16h37.768l8-24h5.288l8,16h33.888l8-16h15.744l16,16h32.256l7.104-14.216l11.76,3.92
			c0.048,0.768,0.192,1.52,0.192,2.296c0,8.744-2.984,17.088-8.2,24H56.2c-4.792-6.344-7.576-13.896-8.008-21.864L64,243.816V264
			H97.888z M278,340.16c0.624,0.576,1.344,1.048,2,1.592V384h-24v-32.76C264.256,349.712,271.88,345.888,278,340.16z M256,334.704
			V332c0-6.616,5.384-12,12-12c1.752,0,3.4,0.392,4.896,1.072l-1.568,2.36C267.648,328.984,262.176,332.848,256,334.704z M200,356
			v28h-24v-28c0-6.616,5.384-12,12-12C194.616,344,200,349.384,200,356z M120,351.248V384H96H72c-13.232,0-24-10.768-24-24
			c0-4.016,1.072-7.936,2.976-11.432C56.216,350.776,61.968,352,68,352c11.28,0,21.944-4.304,30-11.832
			C104.12,345.888,111.744,349.72,120,351.248z M448,440c0,22.056-17.944,40-40,40H88c-22.056,0-40-17.944-40-40v-32
			c0-4.408,3.592-8,8-8h16h24h24.408c1.96,13.536,13.528,24,27.592,24c14.064,0,25.632-10.464,27.592-24H200v36
			c0,15.44,12.56,28,28,28s28-12.56,28-28v-36h26.808c4.512,9.424,14.064,16,25.192,16s20.68-6.576,25.192-16H352h72h16
			c4.408,0,8,3.592,8,8V440z M424,384h-72h-16v-42.104c0.68-0.56,1.352-1.136,2-1.736c8.056,7.536,18.712,11.84,30,11.84
			c11.28,0,21.944-4.304,30-11.832c8.056,7.528,18.72,11.832,30,11.832c6.032,0,11.784-1.224,17.024-3.432
			C446.928,352.064,448,355.984,448,360C448,373.232,437.232,384,424,384z M428,336c-9.392,0-18.112-4.696-23.336-12.568
			L398,313.376l-6.664,10.056C386.112,331.304,377.392,336,368,336c-9.392,0-18.112-4.696-23.336-12.568L338,313.384l-2,3.016V288
			h109.456c7.088,5.368,10.544,11.928,10.544,20C456,323.44,443.44,336,428,336z M476,232h-18.704l-29.344-9.784L419.056,240
			h-15.744l-16-16h-32.256l-8,16h-14.112l-8-16h-26.712l-8,24H280v-16h-27.056l-8-16h-42.712l-8,24h-13.288l-8-16h-33.888l-8,16
			h-20.944l-16,8H80v-27.816L30.464,240H24c-4.408,0-8-3.592-8-8s3.592-8,8-8h3.312l16-16H408v-16H48.168
			C52.376,94.24,133.224,16,232,16h32c98.776,0,179.624,78.24,183.832,176H424v16h28.688l16,16H476c2.208,0,4,1.792,4,4
			S478.208,232,476,232z"/>
	</g>
</g>
<g>
	<g>
		<rect x="232" y="40" width="16" height="16"/>
	</g>
</g>
<g>
	<g>
		<rect x="288" y="64" width="16" height="16"/>
	</g>
</g>
<g>
	<g>
		<rect x="352" y="72" width="16" height="16"/>
	</g>
</g>
<g>
	<g>
		<rect x="248" y="104" width="16" height="16"/>
	</g>
</g>
<g>
	<g>
		<rect x="184" y="80" width="16" height="16"/>
	</g>
</g>
<g>
	<g>
		<rect x="160" y="48" width="16" height="16"/>
	</g>
</g>
<g>
	<g>
		<rect x="120" y="96" width="16" height="16"/>
	</g>
</g>
<g>
</g>
<g>
</g>
<g>
</g>
<g>
</g>
<g>
</g>
<g>
</g>
<g>
</g>
<g>
</g>
<g>
</g>
<g>
</g>
<g>
</g>
<g>
</g>
<g>
</g>
<g>
</g>
<g>
</g>
</svg>
